# xmcd
#
# Track frame offsets:
#	150
#	12075
#	40275
#	54900
#	74100
#	96150
#	129075
#	149100
#	182025
#	201225
#
# Disc length: 2983 seconds
# Revision: 0
# Processed by: cddbd v1.5.2PL0 Copyright (c) Steve Scherf et al.
# Submitted via: dBpowerAMP V12.0
#
DISCID=920ba50a
DTITLE=Nigge Meier and The Blues Explorers - Hold On
DYEAR=2014
DGENRE=Blues
TTITLE0=Lonely Nights
TTITLE1=Whole Lotta Love Blues
TTITLE2=Time
TTITLE3=Awesome Love
TTITLE4=Hold On
TTITLE5=Heart Stealing Thief
TTITLE6=The Dream
TTITLE7=The Cry
TTITLE8=Bad Guy
TTITLE9=Funky Blues
EXTD=
EXTT0=
EXTT1=
EXTT2=
EXTT3=
EXTT4=
EXTT5=
EXTT6=
EXTT7=
EXTT8=
EXTT9=
PLAYORDER=
